HIERARCHY
ROOT group1
{
  OFFSET 0 0 0
  CHANNELS 6 Xposition Yposition Zposition Zrotation Xrotation Yrotation
  JOINT CharcterRoot
  {
    OFFSET 0 0 0
    CHANNELS 6 Xposition Yposition Zposition Zrotation Xrotation Yrotation
    JOINT Hips
    {
      OFFSET 0 89.8009 -6.64634
      CHANNELS 6 Xposition Yposition Zposition Zrotation Xrotation Yrotation
      JOINT RightUpLeg
      {
        OFFSET -9.5908 -3.3245 0.105716
        CHANNELS 6 Xposition Yposition Zposition Zrotation Xrotation Yrotation
        JOINT RightLeg
        {
          OFFSET 2.13158e-005 -40.2639 0
          CHANNELS 6 Xposition Yposition Zposition Zrotation Xrotation Yrotation
          JOINT RightFoot
          {
            OFFSET -2.72818e-005 -35.4222 -0.934944
            CHANNELS 6 Xposition Yposition Zposition Zrotation Xrotation Yrotation
            End Site
            {
              OFFSET -3.50207e-005 -7.60134 14.3052
            }
          }
        }
      }
      JOINT LeftUpLeg
      {
        OFFSET 9.5908 -3.32446 0.105715
        CHANNELS 6 Xposition Yposition Zposition Zrotation Xrotation Yrotation
        JOINT LeftLeg
        {
          OFFSET 0 -40.2639 0
          CHANNELS 6 Xposition Yposition Zposition Zrotation Xrotation Yrotation
          JOINT LeftFoot
          {
            OFFSET 0 -35.4222 -0.934941
            CHANNELS 6 Xposition Yposition Zposition Zrotation Xrotation Yrotation
            End Site
            {
              OFFSET 0 -7.60135 14.3052
            }
          }
        }
      }
      JOINT Spine
      {
        OFFSET 0 12.503 0
        CHANNELS 6 Xposition Yposition Zposition Zrotation Xrotation Yrotation
        JOINT Spine32
        {
          OFFSET 0 12.0871 0
          CHANNELS 6 Xposition Yposition Zposition Zrotation Xrotation Yrotation
          JOINT Spine2
          {
            OFFSET 0 11.1669 0
            CHANNELS 6 Xposition Yposition Zposition Zrotation Xrotation Yrotation
            JOINT Spine3
            {
              OFFSET 0 13.0259 0
              CHANNELS 6 Xposition Yposition Zposition Zrotation Xrotation Yrotation
              JOINT Neck
              {
                OFFSET 0 14.6544 2.00966
                CHANNELS 6 Xposition Yposition Zposition Zrotation Xrotation Yrotation
                JOINT Head
                {
                  OFFSET 0 6.22635 0.603662
                  CHANNELS 6 Xposition Yposition Zposition Zrotation Xrotation Yrotation
                  End Site
                  {
                    OFFSET 0 0 0
                  }
                }
              }
              JOINT RightShoulder
              {
                OFFSET -6.8626 7.18526 0
                CHANNELS 6 Xposition Yposition Zposition Zrotation Xrotation Yrotation
                JOINT RightArm
                {
                  OFFSET -10.8384 -6.369 0
                  CHANNELS 6 Xposition Yposition Zposition Zrotation Xrotation Yrotation
                  JOINT RightForeArm
                  {
                    OFFSET -24.8289 0.00018263 0
                    CHANNELS 6 Xposition Yposition Zposition Zrotation Xrotation Yrotation
                    JOINT RightHand
                    {
                      OFFSET -25.4511 -3.93494e-005 0
                      CHANNELS 6 Xposition Yposition Zposition Zrotation Xrotation Yrotation
                      JOINT RightHandThumb1
                      {
                        OFFSET -2.84664 -1.04231 2.51819
                        CHANNELS 6 Xposition Yposition Zposition Zrotation Xrotation Yrotation
                        JOINT RightHandThumb2
                        {
                          OFFSET -2.76496 -3.42383e-005 -1.4704e-005
                          CHANNELS 6 Xposition Yposition Zposition Zrotation Xrotation Yrotation
                          JOINT RightHandThumb3
                          {
                            OFFSET -2.21917 4.9492e-005 -2.92462e-005
                            CHANNELS 6 Xposition Yposition Zposition Zrotation Xrotation Yrotation
                            End Site
                            {
                              OFFSET -2.25593 -4.49657e-005 3.52507e-005
                            }
                          }
                        }
                      }
                      JOINT RightInHandIndex
                      {
                        OFFSET -3.31603 0.522887 2.03499
                        CHANNELS 6 Xposition Yposition Zposition Zrotation Xrotation Yrotation
                        JOINT RightHandIndex1
                        {
                          OFFSET -3.56488 0.762154 0.762531
                          CHANNELS 6 Xposition Yposition Zposition Zrotation Xrotation Yrotation
                          JOINT RightHandIndex2
                          {
                            OFFSET -3.33214 -0.00882484 1.17356e-005
                            CHANNELS 6 Xposition Yposition Zposition Zrotation Xrotation Yrotation
                            JOINT RightHandIndex3
                            {
                              OFFSET -2.20221 8.75862e-005 -2.16649e-005
                              CHANNELS 6 Xposition Yposition Zposition Zrotation Xrotation Yrotation
                              End Site
                              {
                                OFFSET -1.85699 -7.52731e-005 1.53183e-005
                              }
                            }
                          }
                        }
                      }
                      JOINT RightInHandMiddle
                      {
                        OFFSET -3.47902 0.729685 0.590429
                        CHANNELS 6 Xposition Yposition Zposition Zrotation Xrotation Yrotation
                        JOINT RightHandMiddle1
                        {
                          OFFSET -3.8706 1.00744 0.210633
                          CHANNELS 6 Xposition Yposition Zposition Zrotation Xrotation Yrotation
                          JOINT RightHandMiddle2
                          {
                            OFFSET -4.062 -3.83374e-005 0
                            CHANNELS 6 Xposition Yposition Zposition Zrotation Xrotation Yrotation
                            JOINT RightHandMiddle3
                            {
                              OFFSET -2.54702 0 0
                              CHANNELS 6 Xposition Yposition Zposition Zrotation Xrotation Yrotation
                              End Site
                              {
                                OFFSET -2.03103 1.09953e-005 0
                              }
                            }
                          }
                        }
                      }
                      JOINT RightInHandRing
                      {
                        OFFSET -3.46105 0.598822 -0.654528
                        CHANNELS 6 Xposition Yposition Zposition Zrotation Xrotation Yrotation
                        JOINT RightHandRing1
                        {
                          OFFSET -3.51391 0.798038 -0.363107
                          CHANNELS 6 Xposition Yposition Zposition Zrotation Xrotation Yrotation
                          JOINT RightHandRing2
                          {
                            OFFSET -3.54106 -2.39035e-005 0
                            CHANNELS 6 Xposition Yposition Zposition Zrotation Xrotation Yrotation
                            JOINT RightHandRing3
                            {
                              OFFSET -2.45601 3.51668e-005 1.14302e-005
                              CHANNELS 6 Xposition Yposition Zposition Zrotation Xrotation Yrotation
                              End Site
                              {
                                OFFSET -1.90995 0 0
                              }
                            }
                          }
                        }
                      }
                      JOINT RightInHandPinky
                      {
                        OFFSET -3.25106 0.482959 -1.91843
                        CHANNELS 6 Xposition Yposition Zposition Zrotation Xrotation Yrotation
                        JOINT RightHandPinky1
                        {
                          OFFSET -3.21739 0.0744172 -0.778535
                          CHANNELS 6 Xposition Yposition Zposition Zrotation Xrotation Yrotation
                          JOINT RightHandPinky2
                          {
                            OFFSET -2.70651 0.00729801 2.86167e-005
                            CHANNELS 6 Xposition Yposition Zposition Zrotation Xrotation Yrotation
                            JOINT RightHandPinky3
                            {
                              OFFSET -1.82737 0.00679142 -1.20484e-005
                              CHANNELS 6 Xposition Yposition Zposition Zrotation Xrotation Yrotation
                              End Site
                              {
                                OFFSET -1.68268 0.176866 0
                              }
                            }
                          }
                        }
                      }
                    }
                  }
                }
              }
              JOINT LeftShoulder
              {
                OFFSET 6.8626 7.18557 0
                CHANNELS 6 Xposition Yposition Zposition Zrotation Xrotation Yrotation
                JOINT LeftArm
                {
                  OFFSET 10.8384 -6.36919 0
                  CHANNELS 6 Xposition Yposition Zposition Zrotation Xrotation Yrotation
                  JOINT LeftForeArm
                  {
                    OFFSET 24.8292 0 0
                    CHANNELS 6 Xposition Yposition Zposition Zrotation Xrotation Yrotation
                    JOINT LeftHand
                    {
                      OFFSET 25.451 0 0
                      CHANNELS 6 Xposition Yposition Zposition Zrotation Xrotation Yrotation
                      JOINT LeftHandThumb1
                      {
                        OFFSET 2.84667 -1.04227 2.5182
                        CHANNELS 6 Xposition Yposition Zposition Zrotation Xrotation Yrotation
                        JOINT LeftHandThumb2
                        {
                          OFFSET 2.76492 0 0
                          CHANNELS 6 Xposition Yposition Zposition Zrotation Xrotation Yrotation
                          JOINT LeftHandThumb3
                          {
                            OFFSET 2.21914 0 0
                            CHANNELS 6 Xposition Yposition Zposition Zrotation Xrotation Yrotation
                            End Site
                            {
                              OFFSET 2.256 0 0
                            }
                          }
                        }
                      }
                      JOINT LeftInHandIndex
                      {
                        OFFSET 3.316 0.523 2.035
                        CHANNELS 6 Xposition Yposition Zposition Zrotation Xrotation Yrotation
                        JOINT LeftHandIndex1
                        {
                          OFFSET 3.56488 0.762145 0.762534
                          CHANNELS 6 Xposition Yposition Zposition Zrotation Xrotation Yrotation
                          JOINT LeftHandIndex2
                          {
                            OFFSET 3.33218 -0.00884823 0
                            CHANNELS 6 Xposition Yposition Zposition Zrotation Xrotation Yrotation
                            JOINT LeftHandIndex3
                            {
                              OFFSET 2.20219 0 0
                              CHANNELS 6 Xposition Yposition Zposition Zrotation Xrotation Yrotation
                              End Site
                              {
                                OFFSET 1.857 0 0
                              }
                            }
                          }
                        }
                      }
                      JOINT LeftInHandMiddle
                      {
                        OFFSET 3.479 0.729725 0.590434
                        CHANNELS 6 Xposition Yposition Zposition Zrotation Xrotation Yrotation
                        JOINT LeftHandMiddle1
                        {
                          OFFSET 3.87061 1.00743 0.210628
                          CHANNELS 6 Xposition Yposition Zposition Zrotation Xrotation Yrotation
                          JOINT LeftHandMiddle2
                          {
                            OFFSET 4.062 0 0
                            CHANNELS 6 Xposition Yposition Zposition Zrotation Xrotation Yrotation
                            JOINT LeftHandMiddle3
                            {
                              OFFSET 2.547 0 0
                              CHANNELS 6 Xposition Yposition Zposition Zrotation Xrotation Yrotation
                              End Site
                              {
                                OFFSET 2.031 0 0
                              }
                            }
                          }
                        }
                      }
                      JOINT LeftInHandRing
                      {
                        OFFSET 3.461 0.598879 -0.654525
                        CHANNELS 6 Xposition Yposition Zposition Zrotation Xrotation Yrotation
                        JOINT LeftHandRing1
                        {
                          OFFSET 3.51397 0.79802 -0.363108
                          CHANNELS 6 Xposition Yposition Zposition Zrotation Xrotation Yrotation
                          JOINT LeftHandRing2
                          {
                            OFFSET 3.541 0 0
                            CHANNELS 6 Xposition Yposition Zposition Zrotation Xrotation Yrotation
                            JOINT LeftHandRing3
                            {
                              OFFSET 2.456 0 0
                              CHANNELS 6 Xposition Yposition Zposition Zrotation Xrotation Yrotation
                              End Site
                              {
                                OFFSET 1.91 0 0
                              }
                            }
                          }
                        }
                      }
                      JOINT LeftInHandPinky
                      {
                        OFFSET 3.251 0.483 -1.91842
                        CHANNELS 6 Xposition Yposition Zposition Zrotation Xrotation Yrotation
                        JOINT LeftHandPinky1
                        {
                          OFFSET 3.21743 0.0744614 -0.778533
                          CHANNELS 6 Xposition Yposition Zposition Zrotation Xrotation Yrotation
                          JOINT LeftHandPinky2
                          {
                            OFFSET 2.70651 0.00721598 0
                            CHANNELS 6 Xposition Yposition Zposition Zrotation Xrotation Yrotation
                            JOINT LeftHandPinky3
                            {
                              OFFSET 1.82734 0.00684804 0
                              CHANNELS 6 Xposition Yposition Zposition Zrotation Xrotation Yrotation
                              End Site
                              {
                                OFFSET 1.692 0 0
                              }
                            }
                          }
                        }
                      }
                    }
                  }
                }
              }
            }
          }
        }
      }
    }
  }
}
MOTION
Frames:	3
Frame Time:	0.0416667
0 0 0 0 0 -0 0 0 0 0 0 -0 0 89.8009 -6.64634 0 0 -0 -9.5908 -3.3245 0.105716 0 0 -0 2.13158e-005 -40.2639 -7.26292e-007 0 0 -0 -2.72818e-005 -35.4222 -0.934944 0 0 -0 9.5908 -3.32446 0.105715 0 0 -0 0 -40.2639 0 0 0 -0 0 -35.4222 -0.934941 0 0 -0 0 12.503 0 0 0 -0 0 12.0871 0 0 0 -0 0 11.1669 0 0 0 -0 0 13.0259 0 0 0 -0 0 14.6544 2.00966 0 0 -0 0 6.22635 0.603662 0 0 -0 -6.8626 7.18526 -4.48987e-006 0 0 -0 -10.8384 -6.369 0 82.9844 0.0602327 -6.15999 -24.8289 0.00018263 0 0.816249 -1.80843 24.3007 -25.4511 -3.93494e-005 1.27666e-006 12.5383 2.81956 1.96373 -2.84664 -1.04231 2.51819 -3.47715 -1.39994 38.8833 -2.76496 -3.42383e-005 -1.4704e-005 -3.39364e-005 -0.000196617 -9.79284 -2.21917 4.9492e-005 -2.92462e-005 -0.000526661 0.000256599 -10.9617 -3.31603 0.522887 2.03499 1.19271e-015 0 -3.18055e-015 -3.56488 0.762154 0.762531 -6.62536 0.40601 -4.92434 -3.33214 -0.00882484 1.17356e-005 0.231425 9.6686e-005 9.752e-005 -2.20221 8.75862e-005 -2.16649e-005 -0.376441 -9.38269e-005 -0.000871487 -3.47902 0.729685 0.590429 1.19271e-015 0 -3.18055e-015 -3.8706 1.00744 0.210633 -2.41347 -5.67058 -0.948837 -4.062 -3.83374e-005 -4.25784e-006 0.0285174 9.15503e-005 -7.43996e-005 -2.54702 4.06423e-006 -2.7934e-007 -0.0172702 9.93751e-005 -0.000229995 -3.46105 0.598822 -0.654528 1.19271e-015 0 -3.18055e-015 -3.51391 0.798038 -0.363107 -6.0749 0.0146028 1.75424 -3.54106 -2.39035e-005 -7.76893e-006 0.0626445 -6.74606e-005 -9.09076e-005 -2.45601 3.51668e-005 1.14302e-005 -0.0406841 3.97569e-016 -0 -3.25106 0.482959 -1.91843 1.19271e-015 0 -3.18055e-015 -3.21739 0.0744172 -0.778535 -15.9702 -11.3755 3.99424 -2.70651 0.00729801 2.86167e-005 4.99158 0 6.86996e-005 -1.82737 0.00679142 -1.20484e-005 9.62015 0.000216293 -0.000469756 6.8626 7.18557 0 0 0 -0 10.8384 -6.36919 0 -84.505 0.363406 6.86234 24.8292 3.55271e-015 0 -0.615227 -1.27651 -25.7479 25.451 7.10543e-015 -3.55271e-015 -14.1271 2.00978 -0.389363 2.84667 -1.04227 2.5182 -1.4542 -0.553658 -40.9822 2.76492 -2.66454e-015 -1.42109e-014 0.000141743 1.98785e-015 13.6471 2.21914 0 0 0.00015511 -7.95139e-016 15.2992 3.316 0.523 2.035 5.96354e-016 7.95139e-016 -3.18055e-015 3.56488 0.762145 0.762534 6.42761 0.0555038 4.58504 3.33218 -0.00884823 0 -0.221698 3.97569e-016 0.000122797 2.20219 -5.68434e-014 3.55271e-015 -0.0219101 -0.000131617 0.000344154 3.479 0.729725 0.590434 5.96354e-016 7.95139e-016 -3.18055e-015 3.87061 1.00743 0.210628 2.20732 -0.0113278 0.0371823 4.062 -2.66454e-014 0 -0.09286 6.27057e-005 -3.18055e-015 2.547 -1.77636e-015 3.55271e-015 0.0567962 -2.38542e-015 0.000175972 3.461 0.598879 -0.654525 5.96354e-016 7.95139e-016 -3.18055e-015 3.51397 0.79802 -0.363108 4.23434 -8.24191 -2.1732 3.541 -3.55271e-015 0 -0.0280145 1.19271e-015 3.18055e-015 2.456 3.55271e-015 0 0.0446902 -8.80415e-005 -8.84938e-005 3.251 0.483 -1.91842 5.96354e-016 7.95139e-016 -3.18055e-015 3.21743 0.0744614 -0.778533 10.8983 0.665319 -5.72443 2.70651 0.00721598 7.10543e-015 -0.0620202 -7.95139e-016 -3.18055e-015 1.82734 0.00684804 0 2.84137 -1.98785e-016 -0.000102689 
0 0 0 0 0 -0 0 0 0 0 0 -0 0 89.8009 -6.64634 0 0 -0 -9.5908 -3.3245 0.105716 0 0 -0 2.13158e-005 -40.2639 -7.26292e-007 0 0 -0 -2.72818e-005 -35.4222 -0.934944 0 0 -0 9.5908 -3.32446 0.105715 0 0 -0 0 -40.2639 0 0 0 -0 0 -35.4222 -0.934941 0 0 -0 0 12.503 0 0 0 -0 0 12.0871 0 0 0 -0 0 11.1669 0 0 0 -0 0 13.0259 0 0 0 -0 0 14.6544 2.00966 0 0 -0 0 6.22635 0.603662 0 0 -0 -6.8626 7.18526 -4.48987e-006 0 0 -0 -10.8384 -6.369 0 83.7747 0.443562 -5.08378 -24.8289 0.00018263 0 -0.00908203 -0.100723 27.2784 -25.4511 -3.93494e-005 1.27666e-006 13.6192 4.05839 0.129282 -2.84664 -1.04231 2.51819 -2.4865 -1.27409 38.6309 -2.76496 -3.42383e-005 -1.4704e-005 -4.591e-005 -0.000230526 -11.2633 -2.21917 4.9492e-005 -2.92462e-005 -0.000544927 0.000296268 -12.7388 -3.31603 0.522887 2.03499 -7.95139e-016 1.59028e-015 -0 -3.56488 0.762154 0.762531 -4.63807 0.634206 -4.8801 -3.33214 -0.00882484 1.17356e-005 3.04938 6.98515e-005 0.000102507 -2.20221 8.75862e-005 -2.16649e-005 2.45949 -6.93657e-005 -0.000865888 -3.47902 0.729685 0.590429 -7.95139e-016 1.59028e-015 -0 -3.8706 1.00744 0.210633 -0.223962 -5.53108 -0.920689 -4.062 -3.83374e-005 -4.25784e-006 3.0794 9.71172e-005 -6.50699e-005 -2.54702 4.06423e-006 -2.7934e-007 2.70506 9.89755e-005 -0.000234764 -3.46105 0.598822 -0.654528 -7.95139e-016 1.59028e-015 -0 -3.51391 0.798038 -0.363107 -4.03584 -0.0739416 1.82324 -3.54106 -2.39035e-005 -7.76893e-006 2.89597 3.18055e-015 -7.20081e-005 -2.45601 3.51668e-005 1.14302e-005 2.471 1.59028e-015 3.18055e-015 -3.25106 0.482959 -1.91843 -7.95139e-016 1.59028e-015 -0 -3.21739 0.0744172 -0.778535 -13.5327 -11.181 4.16546 -2.70651 0.00729801 2.86167e-005 7.56663 0 8.07401e-005 -1.82737 0.00679142 -1.20484e-005 12.2695 0.000194564 -0.000445382 6.8626 7.18557 0 0 0 -0 10.8384 -6.36919 0 -84.2868 2.88029 6.38269 24.8292 0 0 -1.61368 -3.12639 -27.3242 25.451 0 0 -14.2855 0.74086 -0.474139 2.84667 -1.04227 2.5182 -1.29604 -0.647869 -40.1047 2.76492 -8.88178e-016 0 0.000155195 -1.59028e-015 13.267 2.21914 1.77636e-015 -1.42109e-014 0.000153319 -5.8946e-005 14.8678 3.316 0.523 2.035 1.59028e-015 -2.38542e-015 3.18055e-015 3.56488 0.762145 0.762534 6.4261 -0.129757 4.81929 3.33218 -0.00884823 0 -0.840319 1.19271e-015 0.000122187 2.20219 -6.03961e-014 7.10543e-015 -0.539551 -0.00013226 0.00034322 3.479 0.729725 0.590434 1.59028e-015 -2.38542e-015 3.18055e-015 3.87061 1.00743 0.210628 2.1161 -0.327946 0.25015 4.062 -2.66454e-014 0 -0.799655 6.42422e-005 -3.18055e-015 2.547 0 7.10543e-015 -0.510228 0 0.000176744 3.461 0.598879 -0.654525 1.59028e-015 -2.38542e-015 3.18055e-015 3.51397 0.79802 -0.363108 4.26764 -8.57862 -1.91029 3.541 0 0 -0.784782 -1.19271e-015 9.54166e-015 2.456 1.77636e-015 0 -0.580518 -8.83511e-005 -9.22282e-005 3.251 0.483 -1.91842 1.59028e-015 -2.38542e-015 3.18055e-015 3.21743 0.0744614 -0.778533 11.0161 0.216931 -5.41118 2.70651 0.00721598 7.10543e-015 -0.0620071 0 3.18055e-015 1.82734 0.00684804 0 2.39281 0 -0.000109451 
0 0 0 0 0 -0 0 0 0 0 0 -0 0 89.8009 -6.64634 0 0 -0 -9.5908 -3.3245 0.105716 0 0 -0 2.13158e-005 -40.2639 -7.26292e-007 0 0 -0 -2.72818e-005 -35.4222 -0.934944 0 0 -0 9.5908 -3.32446 0.105715 0 0 -0 0 -40.2639 0 0 0 -0 0 -35.4222 -0.934941 0 0 -0 0 12.503 0 0 0 -0 0 12.0871 0 0 0 -0 0 11.1669 0 0 0 -0 0 13.0259 0 0 0 -0 0 14.6544 2.00966 0 0 -0 0 6.22635 0.603662 0 0 -0 -6.8626 7.18526 -4.48987e-006 0 0 -0 -10.8384 -6.369 0 85.7707 1.48772 -1.9814 -24.8289 0.00018263 0 -3.10413 4.0133 35.4957 -25.4511 -3.93494e-005 1.27666e-006 16.9953 7.06901 -4.7984 -2.84664 -1.04231 2.51819 0.207651 -0.980612 37.8951 -2.76496 -3.42383e-005 -1.4704e-005 2.54216e-007 -0.000327185 -15.2545 -2.21917 4.9492e-005 -2.92462e-005 -0.000634037 0.000390126 -17.5622 -3.31603 0.522887 2.03499 1.59028e-015 3.18055e-015 -9.54166e-015 -3.56488 0.762154 0.762531 0.754229 1.25373 -4.7604 -3.33214 -0.00882484 1.17356e-005 10.6981 0 0.000125109 -2.20221 8.75862e-005 -2.16649e-005 10.1571 -3.18055e-015 -0.000850505 -3.47902 0.729685 0.590429 1.59028e-015 3.18055e-015 -9.54166e-015 -3.8706 1.00744 0.210633 5.71829 -5.15242 -0.844382 -4.062 -3.83374e-005 -4.25784e-006 11.3604 0.00011236 -0 -2.54702 4.06423e-006 -2.7934e-007 10.0942 0.000108965 -0.000288941 -3.46105 0.598822 -0.654528 1.59028e-015 3.18055e-015 -9.54166e-015 -3.51391 0.798038 -0.363107 1.49982 -0.314232 2.01054 -3.54106 -2.39035e-005 -7.76893e-006 10.5864 9.54166e-015 1.27222e-014 -2.45601 3.51668e-005 1.14302e-005 9.28852 -3.18055e-015 -7.95139e-015 -3.25106 0.482959 -1.91843 1.59028e-015 3.18055e-015 -9.54166e-015 -3.21739 0.0744172 -0.778535 -6.92241 -10.6528 4.62924 -2.70651 0.00729801 2.86167e-005 14.5561 -7.42992e-005 0.000116721 -1.82737 0.00679142 -1.20484e-005 19.4605 0.000223136 -0.000422069 6.8626 7.18557 0 0 0 -0 10.8384 -6.36919 0 -83.2432 9.75158 4.75181 24.8292 0 0 -4.84179 -7.85612 -31.7909 25.451 3.55271e-015 -7.10543e-015 -14.7346 -2.701 -0.704907 2.84667 -1.04227 2.5182 -0.854347 -0.879565 -37.7209 2.76492 -2.77556e-015 -1.42109e-014 0.000127999 7.95139e-016 12.2355 2.21914 4.44089e-016 0 0.000169055 -6.64713e-005 13.6967 3.316 0.523 2.035 2.78299e-015 0 -3.18055e-015 3.56488 0.762145 0.762534 6.42968 -0.631934 5.45542 3.33218 -0.00884823 0 -2.51943 3.97569e-016 0.000121521 2.20219 -5.86198e-014 0 -1.94457 -0.000128558 0.000352912 3.479 0.729725 0.590434 2.78299e-015 0 -3.18055e-015 3.87061 1.00743 0.210628 1.88034 -1.18724 0.828372 4.062 -2.66454e-014 -7.10543e-015 -2.71809 6.5307e-005 3.18055e-015 2.547 4.44089e-016 -1.42109e-014 -2.0493 0 0.000165705 3.461 0.598879 -0.654525 2.78299e-015 0 -3.18055e-015 3.51397 0.79802 -0.363108 4.37382 -9.49209 -1.19458 3.541 -4.44089e-016 -7.10543e-015 -2.83891 3.97569e-016 -9.54166e-015 2.456 2.22045e-015 0 -2.2775 -8.71885e-005 -0.000105922 3.251 0.483 -1.91842 2.78299e-015 0 -3.18055e-015 3.21743 0.0744614 -0.778533 11.3607 -1.00239 -4.56253 2.70651 0.00721598 0 -0.0619313 -9.93923e-017 3.18055e-015 1.82734 0.00684804 7.10543e-015 1.17527 0 -0.000116949 
